<svg width="13" height="16" viewBox="0 0 13 16" fill="none" xmlns="http://www.w3.org/2000/svg">
<path d="M9.4 12.2V13.6C9.4 13.9713 9.2525 14.3274 8.98995 14.5899C8.7274 14.8525 8.3713 15 8 15H2.4C2.0287 15 1.6726 14.8525 1.41005 14.5899C1.1475 14.3274 1 13.9713 1 13.6V5.9C1 5.5287 1.1475 5.1726 1.41005 4.91005C1.6726 4.6475 2.0287 4.5 2.4 4.5H3.8M3.8 2.4V10.8C3.8 11.1713 3.9475 11.5274 4.21005 11.7899C4.4726 12.0525 4.8287 12.2 5.2 12.2H10.8C11.1713 12.2 11.5274 12.0525 11.7899 11.7899C12.0525 11.5274 12.2 11.1713 12.2 10.8V4.6694C12.2 4.48289 12.1627 4.29827 12.0903 4.12637C12.018 3.95447 11.912 3.79877 11.7786 3.6684L9.4581 1.399C9.19655 1.14326 8.8453 1.00005 8.4795 1H5.2C4.8287 1 4.4726 1.1475 4.21005 1.41005C3.9475 1.6726 3.8 2.0287 3.8 2.4Z" stroke="#FF6464" stroke-width="1.4" stroke-linecap="round" stroke-linejoin="round"/>
</svg>
