<svg width="17" height="14" viewBox="0 0 17 14" fill="none" xmlns="http://www.w3.org/2000/svg">
<path d="M10.6551 10.7692L12.5203 14H11.2775L9.41231 10.7692H6.748L4.88277 14H3.64L5.50523 10.7692H2.15385C2.01104 10.7692 1.87408 10.7125 1.7731 10.6115C1.67212 10.5105 1.61538 10.3736 1.61538 10.2308V1.07692H0.538462C0.395653 1.07692 0.258693 1.02019 0.157712 0.919211C0.0567306 0.81823 0 0.68127 0 0.538462C0 0.395653 0.0567306 0.258693 0.157712 0.157712C0.258693 0.0567307 0.395653 0 0.538462 0H15.6154C15.7582 0 15.8952 0.0567307 15.9961 0.157712C16.0971 0.258693 16.1538 0.395653 16.1538 0.538462C16.1538 0.68127 16.0971 0.81823 15.9961 0.919211C15.8952 1.02019 15.7582 1.07692 15.6154 1.07692H14.5385V10.2308C14.5385 10.3736 14.4817 10.5105 14.3807 10.6115C14.2798 10.7125 14.1428 10.7692 14 10.7692H10.6551ZM13.4615 1.07692H2.69231V9.69231H13.4615V1.07692ZM5.38461 5.38462C5.52742 5.38462 5.66438 5.44135 5.76536 5.54233C5.86635 5.64331 5.92308 5.78027 5.92308 5.92308V7C5.92308 7.14281 5.86635 7.27977 5.76536 7.38075C5.66438 7.48173 5.52742 7.53846 5.38461 7.53846C5.24181 7.53846 5.10485 7.48173 5.00387 7.38075C4.90288 7.27977 4.84615 7.14281 4.84615 7V5.92308C4.84615 5.78027 4.90288 5.64331 5.00387 5.54233C5.10485 5.44135 5.24181 5.38462 5.38461 5.38462ZM8.07692 4.30769C8.21973 4.30769 8.35669 4.36442 8.45767 4.4654C8.55865 4.56639 8.61538 4.70335 8.61538 4.84615V7C8.61538 7.14281 8.55865 7.27977 8.45767 7.38075C8.35669 7.48173 8.21973 7.53846 8.07692 7.53846C7.93411 7.53846 7.79715 7.48173 7.69617 7.38075C7.59519 7.27977 7.53846 7.14281 7.53846 7V4.84615C7.53846 4.70335 7.59519 4.56639 7.69617 4.4654C7.79715 4.36442 7.93411 4.30769 8.07692 4.30769ZM10.7692 3.23077C10.912 3.23077 11.049 3.2875 11.15 3.38848C11.251 3.48946 11.3077 3.62642 11.3077 3.76923V7C11.3077 7.14281 11.251 7.27977 11.15 7.38075C11.049 7.48173 10.912 7.53846 10.7692 7.53846C10.6264 7.53846 10.4895 7.48173 10.3885 7.38075C10.2875 7.27977 10.2308 7.14281 10.2308 7V3.76923C10.2308 3.62642 10.2875 3.48946 10.3885 3.38848C10.4895 3.2875 10.6264 3.23077 10.7692 3.23077Z" fill="#FF6464"/>
</svg>
