<svg width="9" height="15" viewBox="0 0 9 15" fill="none" xmlns="http://www.w3.org/2000/svg">
<path d="M2.25 2.5C2.66421 2.5 3 2.16421 3 1.75C3 1.33579 2.66421 1 2.25 1C1.83579 1 1.5 1.33579 1.5 1.75C1.5 2.16421 1.83579 2.5 2.25 2.5Z" stroke="#585858" stroke-width="1.5" stroke-linecap="round" stroke-linejoin="round"/>
<path d="M2.25 8C2.66421 8 3 7.66421 3 7.25C3 6.83579 2.66421 6.5 2.25 6.5C1.83579 6.5 1.5 6.83579 1.5 7.25C1.5 7.66421 1.83579 8 2.25 8Z" stroke="#585858" stroke-width="1.5" stroke-linecap="round" stroke-linejoin="round"/>
<path d="M2.25 13.5C2.66421 13.5 3 13.1642 3 12.75C3 12.3358 2.66421 12 2.25 12C1.83579 12 1.5 12.3358 1.5 12.75C1.5 13.1642 1.83579 13.5 2.25 13.5Z" stroke="#585858" stroke-width="1.5" stroke-linecap="round" stroke-linejoin="round"/>
<path d="M7.246 2.5C7.66021 2.5 7.996 2.16421 7.996 1.75C7.996 1.33579 7.66021 1 7.246 1C6.83179 1 6.496 1.33579 6.496 1.75C6.496 2.16421 6.83179 2.5 7.246 2.5Z" stroke="#585858" stroke-width="1.5" stroke-linecap="round" stroke-linejoin="round"/>
<path d="M7.246 8C7.66021 8 7.996 7.66421 7.996 7.25C7.996 6.83579 7.66021 6.5 7.246 6.5C6.83179 6.5 6.496 6.83579 6.496 7.25C6.496 7.66421 6.83179 8 7.246 8Z" stroke="#585858" stroke-width="1.5" stroke-linecap="round" stroke-linejoin="round"/>
<path d="M7.246 13.5C7.66021 13.5 7.996 13.1642 7.996 12.75C7.996 12.3358 7.66021 12 7.246 12C6.83179 12 6.496 12.3358 6.496 12.75C6.496 13.1642 6.83179 13.5 7.246 13.5Z" stroke="#585858" stroke-width="1.5" stroke-linecap="round" stroke-linejoin="round"/>
</svg>
