<svg width="12" height="11" viewBox="0 0 12 11" fill="none" xmlns="http://www.w3.org/2000/svg">
<path fill-rule="evenodd" clip-rule="evenodd" d="M0.5 5.5C0.5 5.31059 0.575241 5.12895 0.709172 4.99502C0.843102 4.86108 1.02475 4.78584 1.21416 4.78584H9.48838L6.42179 1.72068C6.28769 1.58658 6.21235 1.4047 6.21235 1.21506C6.21235 1.02541 6.28769 0.843536 6.42179 0.709436C6.55589 0.575337 6.73777 0.5 6.92741 0.5C7.11706 0.5 7.29894 0.575337 7.43303 0.709436L11.718 4.99438C11.7845 5.06072 11.8372 5.13952 11.8733 5.22629C11.9093 5.31305 11.9278 5.40606 11.9278 5.5C11.9278 5.59394 11.9093 5.68695 11.8733 5.77371C11.8372 5.86048 11.7845 5.93928 11.718 6.00562L7.43303 10.2906C7.29894 10.4247 7.11706 10.5 6.92741 10.5C6.73777 10.5 6.55589 10.4247 6.42179 10.2906C6.28769 10.1565 6.21235 9.97459 6.21235 9.78494C6.21235 9.5953 6.28769 9.41342 6.42179 9.27932L9.48838 6.21416H1.21416C1.02475 6.21416 0.843102 6.13892 0.709172 6.00499C0.575241 5.87106 0.5 5.68941 0.5 5.5Z" fill="white"/>
</svg>
