<svg width="16" height="14" viewBox="0 0 16 14" fill="none" xmlns="http://www.w3.org/2000/svg">
<path d="M10.4 2.48C10.1733 2.48 9.98347 2.40347 9.8304 2.2504C9.6768 2.0968 9.6 1.90667 9.6 1.68C9.6 1.45334 9.6768 1.2632 9.8304 1.1096C9.98347 0.956538 10.1733 0.880005 10.4 0.880005H15.2C15.4267 0.880005 15.6165 0.956538 15.7696 1.1096C15.9232 1.2632 16 1.45334 16 1.68C16 1.90667 15.9232 2.0968 15.7696 2.2504C15.6165 2.40347 15.4267 2.48 15.2 2.48H10.4ZM10.4 6.88C10.1733 6.88 9.98347 6.8032 9.8304 6.6496C9.6768 6.49654 9.6 6.30667 9.6 6.08C9.6 5.85334 9.6768 5.6632 9.8304 5.5096C9.98347 5.35654 10.1733 5.28 10.4 5.28H15.2C15.4267 5.28 15.6165 5.35654 15.7696 5.5096C15.9232 5.6632 16 5.85334 16 6.08C16 6.30667 15.9232 6.49654 15.7696 6.6496C15.6165 6.8032 15.4267 6.88 15.2 6.88H10.4ZM10.4 11.28C10.1733 11.28 9.98347 11.2032 9.8304 11.0496C9.6768 10.8965 9.6 10.7067 9.6 10.48C9.6 10.2533 9.6768 10.0635 9.8304 9.9104C9.98347 9.7568 10.1733 9.68 10.4 9.68H15.2C15.4267 9.68 15.6165 9.7568 15.7696 9.9104C15.9232 10.0635 16 10.2533 16 10.48C16 10.7067 15.9232 10.8965 15.7696 11.0496C15.6165 11.2032 15.4267 11.28 15.2 11.28H10.4ZM4.48 12.88C4.33333 12.7333 4.26 12.5467 4.26 12.32C4.26 12.0933 4.33333 11.9067 4.48 11.76L4.96 11.28C3.56 11.2 2.38347 10.66 1.4304 9.66C0.4768 8.66 0 7.46667 0 6.08C0 4.62667 0.503467 3.39654 1.5104 2.3896C2.5168 1.3832 3.74667 0.880005 5.2 0.880005H7.2C7.42667 0.880005 7.6168 0.956538 7.7704 1.1096C7.92347 1.2632 8 1.45334 8 1.68C8 1.90667 7.92347 2.0968 7.7704 2.2504C7.6168 2.40347 7.42667 2.48 7.2 2.48H5.2C4.2 2.48 3.34987 2.82667 2.6496 3.52C1.94987 4.21334 1.6 5.06 1.6 6.06C1.6 7.00667 1.9168 7.82 2.5504 8.5C3.18347 9.18 3.97333 9.56 4.92 9.64L4.46 9.18C4.31333 9.03334 4.24 8.85334 4.24 8.64C4.24 8.42667 4.32 8.24 4.48 8.08C4.62667 7.93334 4.81333 7.86 5.04 7.86C5.26667 7.86 5.45333 7.93334 5.6 8.08L7.44 9.92C7.52 10 7.5768 10.0867 7.6104 10.18C7.64347 10.2733 7.66 10.3733 7.66 10.48C7.66 10.5867 7.64347 10.6867 7.6104 10.78C7.5768 10.8733 7.52 10.96 7.44 11.04L5.58 12.9C5.43333 13.0467 5.25333 13.12 5.04 13.12C4.82667 13.12 4.64 13.04 4.48 12.88Z" fill="#FF6464"/>
</svg>
