<svg width="14" height="16" viewBox="0 0 14 16" fill="none" xmlns="http://www.w3.org/2000/svg">
<path d="M5.87222 0.411861C6.18782 0.145878 6.58727 0 7 0C7.41273 0 7.81218 0.145878 8.12778 0.411861L13.3778 4.84131C13.7729 5.17342 14 5.66264 14 6.17908V13.8029C14 14.1638 13.8566 14.5101 13.6013 14.7653C13.3461 15.0206 12.9999 15.164 12.6389 15.164H10.3056C9.94457 15.164 9.59836 15.0206 9.3431 14.7653C9.08785 14.5101 8.94444 14.1638 8.94444 13.8029V9.91397C8.94444 9.75926 8.88299 9.61089 8.77359 9.50149C8.66419 9.3921 8.51582 9.33064 8.36111 9.33064H5.63889C5.48418 9.33064 5.33581 9.3921 5.22641 9.50149C5.11701 9.61089 5.05556 9.75926 5.05556 9.91397V13.8029C5.05556 14.1638 4.91215 14.5101 4.6569 14.7653C4.40164 15.0206 4.05543 15.164 3.69444 15.164H1.36111C1.18237 15.164 1.00537 15.1288 0.840237 15.0604C0.675099 14.992 0.525051 14.8917 0.39866 14.7653C0.272269 14.6389 0.172011 14.4889 0.103608 14.3237C0.0352062 14.1586 0 13.9816 0 13.8029V6.17831C0 5.66264 0.227111 5.17342 0.622222 4.84053L5.87222 0.411861Z" fill="#585858"/>
</svg>
