<svg width="14" height="14" viewBox="0 0 14 14" fill="none" xmlns="http://www.w3.org/2000/svg">
<path d="M7 14C3.1339 14 0 10.8661 0 7C0 3.1339 3.1339 0 7 0C10.8661 0 14 3.1339 14 7C13.9958 10.864 10.864 13.9958 7 14ZM6.3 10.5V11.9H7.7V10.5H6.3ZM7 3.5C7.3713 3.5 7.7274 3.6475 7.98995 3.91005C8.2525 4.1726 8.4 4.5287 8.4 4.9C8.40118 5.08385 8.3652 5.26605 8.29423 5.43565C8.22326 5.60526 8.11876 5.75878 7.987 5.887L7.119 6.769C6.59501 7.2952 6.30057 8.0074 6.3 8.75V9.1H7.7C7.67317 8.72886 7.73322 8.35658 7.87539 8.01271C8.01755 7.66884 8.23792 7.36284 8.519 7.119L9.149 6.475C9.35627 6.26856 9.52053 6.02306 9.63227 5.75271C9.74401 5.48236 9.80103 5.19253 9.8 4.9C9.8 4.15739 9.505 3.4452 8.9799 2.9201C8.4548 2.395 7.74261 2.1 7 2.1C6.25739 2.1 5.5452 2.395 5.0201 2.9201C4.495 3.4452 4.2 4.15739 4.2 4.9H5.6C5.6 4.5287 5.7475 4.1726 6.01005 3.91005C6.2726 3.6475 6.6287 3.5 7 3.5Z" fill="#585858"/>
</svg>
