<svg width="14" height="14" viewBox="0 0 14 14" fill="none" xmlns="http://www.w3.org/2000/svg">
<path d="M13.794 2.89231C13.6691 2.67587 13.4902 2.49551 13.2748 2.3688C13.0594 2.2421 12.8149 2.17338 12.565 2.16936H3.31114L2.89183 0.535473C2.84946 0.377752 2.75494 0.23902 2.62367 0.141875C2.49239 0.0447298 2.33209 -0.00510576 2.16887 0.000485035H0.722957C0.531217 0.000485035 0.34733 0.0766535 0.211749 0.212234C0.0761685 0.347815 0 0.531702 0 0.723442C0 0.915182 0.0761685 1.09907 0.211749 1.23465C0.34733 1.37023 0.531217 1.4464 0.722957 1.4464H1.61942L3.61479 8.86394C3.65715 9.02166 3.75167 9.16039 3.88295 9.25754C4.01423 9.35468 4.17453 9.40452 4.33774 9.39893H10.8444C10.9779 9.39852 11.1087 9.36116 11.2222 9.29097C11.3358 9.22079 11.4277 9.12053 11.4878 9.0013L13.8591 4.2587C13.9619 4.04327 14.0097 3.80575 13.9984 3.56733C13.987 3.32891 13.9168 3.097 13.794 2.89231Z" fill="#585858"/>
<path d="M3.97626 13.0137C4.57518 13.0137 5.0607 12.5282 5.0607 11.9293C5.0607 11.3304 4.57518 10.8448 3.97626 10.8448C3.37735 10.8448 2.89183 11.3304 2.89183 11.9293C2.89183 12.5282 3.37735 13.0137 3.97626 13.0137Z" fill="#585858"/>
<path d="M11.2058 13.0137C11.8048 13.0137 12.2903 12.5282 12.2903 11.9293C12.2903 11.3304 11.8048 10.8448 11.2058 10.8448C10.6069 10.8448 10.1214 11.3304 10.1214 11.9293C10.1214 12.5282 10.6069 13.0137 11.2058 13.0137Z" fill="#585858"/>
</svg>
