<svg width="14" height="16" viewBox="0 0 14 16" fill="none" xmlns="http://www.w3.org/2000/svg">
<path d="M13.125 0H11.375C11.1429 0 10.9204 0.0921872 10.7563 0.256282C10.5922 0.420376 10.5 0.642936 10.5 0.875V15.743H14V0.875C14 0.642936 13.9078 0.420376 13.7437 0.256282C13.5796 0.0921872 13.3571 0 13.125 0ZM7.875 5.25H6.125C5.89294 5.25 5.67038 5.34219 5.50628 5.50628C5.34219 5.67038 5.25 5.89294 5.25 6.125V15.743H8.75V6.125C8.75 5.89294 8.65781 5.67038 8.49372 5.50628C8.32962 5.34219 8.10706 5.25 7.875 5.25ZM2.625 10.5H0.875C0.642936 10.5 0.420376 10.5922 0.256282 10.7563C0.0921872 10.9204 0 11.1429 0 11.375V15.743H3.5V11.375C3.5 11.1429 3.40781 10.9204 3.24372 10.7563C3.07962 10.5922 2.85706 10.5 2.625 10.5Z" fill="#585858"/>
</svg>
